<?xml version="1.0" encoding="utf-8"?>
<!-- Generator: Adobe Illustrator 25.4.1, SVG Export Plug-In . SVG Version: 6.00 Build 0)  -->
<svg version="1.1" id="Capa_1" xmlns="http://www.w3.org/2000/svg" xmlns:xlink="http://www.w3.org/1999/xlink" x="0px" y="0px"
	 viewBox="0 0 258.9 103.5" style="enable-background:new 0 0 258.9 103.5;" xml:space="preserve">
<style type="text/css">
	.st0{enable-background:new    ;}
	.st1{fill:#007381;}
	.st2{fill:#CD3263;}
</style>
<g class="st0">
	<path class="st1" d="M60.4,17.8c0-5.1,3.7-8.9,9-8.9c3.2,0,5,1.1,5.6,1.6l-0.9,1.4c-0.5-0.4-2-1.4-4.5-1.4c-4.5,0-7.5,2.9-7.5,7.2
		c0,4.3,2.9,7.3,7.5,7.3c2.6,0,4-0.9,4.6-1.3l0.8,1.4c-0.6,0.4-2.4,1.5-5.6,1.5C64,26.7,60.4,22.9,60.4,17.8z"/>
</g>
<g class="st0">
	<path class="st1" d="M92.1,15.2v11.3h-1.5l0-1.9c-0.7,1.2-2.1,2.2-3.9,2.2c-2.9,0-4.9-2.1-4.9-5.2v-6.3h1.7v5.9
		c0,2.4,1.3,3.9,3.3,3.9c2.4,0,3.6-1.9,3.6-3.6v-6.3H92.1z"/>
</g>
<g class="st0">
	<path class="st1" d="M99.3,25.3l0.9-1.4c0.9,0.7,2.1,1.2,3.8,1.2c1.6,0,2.6-0.6,2.6-1.7c0-1-0.6-1.5-2.7-2c-2.5-0.6-4-1.5-4-3.3
		c0-1.9,1.6-3.2,4.1-3.2c1.9,0,3.1,0.5,4,1.2l-0.8,1.3c-1.2-0.7-2-1-3.4-1c-1.3,0-2.3,0.5-2.3,1.5c0,0.9,0.8,1.3,2.9,1.8
		c2.9,0.8,3.8,1.7,3.8,3.6c0,2-1.8,3.3-4.3,3.3C102,26.7,100.6,26.1,99.3,25.3z"/>
</g>
<g class="st0">
	<path class="st1" d="M116.3,22.8v-6.2H114v-1.4h2.3v-3.9h1.7v3.9h4.7v1.4H118v6.2c0,1.6,0.9,2.4,2.5,2.4c1.3,0,2-0.7,2.3-0.9
		l0.7,1.3c-0.3,0.3-1.3,1.1-3.2,1.1C118,26.7,116.3,25.3,116.3,22.8z"/>
</g>
<g class="st0">
	<path class="st1" d="M168.5,20.2v6.3h-1.7v-6.1c0-2.3-1.2-3.8-3.2-3.8c-2.1,0-3.4,1.7-3.4,3.7v6.2h-1.7v-6.1c0-2.3-1.2-3.9-3.2-3.8
		c-2.1,0-3.2,1.7-3.4,3.2l0,6.7h-1.7V15.2h1.4l0.1,2.1c0.6-1.3,2.1-2.3,3.9-2.3c2,0,3.5,1,4.2,2.6c0.6-1.4,2.1-2.6,4-2.6
		C166.7,14.9,168.5,17,168.5,20.2z"/>
	<path class="st1" d="M184.7,21.3h-9.2c0.2,2.3,2,3.8,4.5,3.8c1.6,0,2.6-0.6,3.4-1.2l0.8,1.3c-0.9,0.7-2.2,1.5-4.4,1.5
		c-3.5,0-6-2.5-6-5.9c0-3.3,2.3-5.9,5.7-5.9c3.1,0,5.2,2.3,5.2,5.6C184.7,21,184.7,21.3,184.7,21.3z M175.5,19.9h7.5
		c-0.1-2.1-1.6-3.5-3.5-3.5C177.4,16.4,175.8,17.8,175.5,19.9z"/>
</g>
<g class="st0">
	<path class="st1" d="M196.4,15l-0.1,1.7c-0.3-0.1-0.6-0.1-1-0.1c-2.4,0-3.5,1.9-3.5,3.5v6.3H190V15.2h1.5l0.1,2.4
		c0.4-1.4,1.8-2.6,3.9-2.6C195.8,14.9,196.2,15,196.4,15z"/>
</g>
<g class="st0">
	<path class="st2" d="M130.4,20.4c0-3.4,2.6-5.9,5.9-5.9c3.2,0,5.9,2.5,5.9,5.9c0,3.3-2.7,5.8-5.9,5.8
		C133,26.3,130.4,23.8,130.4,20.4z M140.4,20.4c0-2.4-1.9-4.3-4.1-4.3s-4.1,1.8-4.1,4.3c0,2.4,1.9,4.2,4.1,4.2
		S140.4,22.8,140.4,20.4z"/>
</g>
<g class="st0">
	<path class="st1" d="M73,84.3l-0.4-11.1L67.7,82h-1L62,73.2l-0.4,11.1h-1.4l0.6-14.1h1l5.5,10l5.7-10h1l0.5,14.1H73z"/>
</g>
<g class="st0">
	<path class="st1" d="M88,75.1v9.2h-1.2l0-1.7c-0.7,1.1-1.9,1.8-3.6,1.8c-2.5,0-4.5-2-4.5-4.8c0-2.7,1.9-4.8,4.4-4.8
		c1.8,0,3,0.8,3.7,1.8l0-1.6H88z M86.6,79.7c0-2-1.3-3.5-3.3-3.5c-1.8,0-3.3,1.5-3.3,3.5c0,2,1.5,3.5,3.3,3.5
		C85.3,83.2,86.6,81.7,86.6,79.7z"/>
	<path class="st1" d="M101.3,79.2v5.1h-1.4v-4.9c0-1.9-1.1-3.2-2.8-3.2c-1.8,0-2.8,1.4-2.9,2.6l0,5.5h-1.4v-9.2h1.2l0.1,1.7
		c0.5-1,1.7-1.9,3.4-1.9C99.6,74.9,101.3,76.6,101.3,79.2z"/>
	<path class="st1" d="M114.5,75.1v9.2h-1.2l0-1.7c-0.7,1.1-1.9,1.8-3.6,1.8c-2.5,0-4.5-2-4.5-4.8c0-2.7,1.9-4.8,4.4-4.8
		c1.8,0,3,0.8,3.7,1.8l0-1.6H114.5z M113.2,79.7c0-2-1.3-3.5-3.3-3.5c-1.8,0-3.3,1.5-3.3,3.5c0,2,1.5,3.5,3.3,3.5
		C111.8,83.2,113.2,81.7,113.2,79.7z"/>
	<path class="st1" d="M127.9,75.1v8.7c0,2.6-1.7,4.6-4.8,4.6c-2,0-3.2-0.6-4.1-1.1l0.6-1.1c0.7,0.4,1.8,1,3.3,1
		c2.2,0,3.5-1.4,3.5-3.2v-1.2c-0.7,1-1.9,1.7-3.5,1.7c-2.5,0-4.5-2-4.5-4.8c0-2.7,1.9-4.8,4.4-4.8c1.8,0,3,0.8,3.7,1.8l0-1.6H127.9z
		 M126.6,79.7c0-2-1.3-3.5-3.3-3.5c-1.8,0-3.3,1.5-3.3,3.5c0,2,1.5,3.5,3.3,3.5C125.3,83.2,126.6,81.7,126.6,79.7z"/>
	<path class="st1" d="M140.9,80.2h-7.5c0.2,1.8,1.7,3.1,3.6,3.1c1.3,0,2.1-0.5,2.8-1l0.7,1c-0.7,0.6-1.8,1.2-3.6,1.2
		c-2.8,0-4.9-2-4.9-4.8c0-2.7,1.9-4.8,4.6-4.8c2.5,0,4.3,1.9,4.3,4.6C140.9,79.9,140.9,80.2,140.9,80.2z M133.4,79h6.2
		c-0.1-1.7-1.3-2.8-2.9-2.8C134.9,76.2,133.7,77.3,133.4,79z"/>
	<path class="st1" d="M159.9,79.2v5.1h-1.4v-4.9c0-1.9-1-3.1-2.6-3.1c-1.7,0-2.8,1.4-2.8,3v5h-1.4v-4.9c0-1.9-1-3.2-2.6-3.1
		c-1.7,0-2.6,1.4-2.7,2.6l0,5.5h-1.4v-9.2h1.2l0.1,1.7c0.5-1,1.7-1.9,3.2-1.9c1.6,0,2.8,0.8,3.4,2.1c0.5-1.1,1.7-2.1,3.3-2.1
		C158.4,74.9,159.9,76.6,159.9,79.2z"/>
	<path class="st1" d="M172.7,80.2h-7.5c0.2,1.8,1.7,3.1,3.6,3.1c1.3,0,2.1-0.5,2.8-1l0.7,1c-0.7,0.6-1.8,1.2-3.6,1.2
		c-2.8,0-4.9-2-4.9-4.8c0-2.7,1.9-4.8,4.6-4.8c2.5,0,4.3,1.9,4.3,4.6C172.7,79.9,172.7,80.2,172.7,80.2z M165.2,79h6.2
		c-0.1-1.7-1.3-2.8-2.9-2.8C166.7,76.2,165.5,77.3,165.2,79z"/>
</g>
<g class="st0">
	<path class="st1" d="M185.3,79.2v5.1h-1.4v-4.9c0-1.9-1.1-3.2-2.8-3.2c-1.8,0-2.8,1.4-2.9,2.6l0,5.5h-1.4v-9.2h1.2l0.1,1.7
		c0.5-1,1.7-1.9,3.4-1.9C183.6,74.9,185.3,76.6,185.3,79.2z"/>
</g>
<g class="st0">
	<path class="st1" d="M190.3,81.3v-5h-1.9v-1.2h1.9v-3.2h1.4v3.2h3.9v1.2h-3.9v5c0,1.3,0.7,1.9,2.1,1.9c1,0,1.6-0.6,1.8-0.7l0.5,1.1
		c-0.3,0.2-1.1,0.9-2.6,0.9C191.6,84.5,190.3,83.4,190.3,81.3z"/>
</g>
<g class="st0">
	<path class="st1" d="M29.3,56.3v5.5H10.8V35.7h18.3v5.5H17.1v4.7h10.7v5.5H17.1v4.9H29.3z"/>
	<path class="st1" d="M50.1,61.8l-5.7-8.6L39,61.8h-7l8.8-13.2l-8.4-12.9h7.4l5,8.3l5.2-8.3h7l-8.4,12.8l9.1,13.3H50.1z"/>
	<path class="st1" d="M80.8,45.4c0,5.6-4.4,9.3-11.2,9.3l-3,0v7h-6.2V35.7H70C76.5,35.7,80.8,39.7,80.8,45.4z M74.5,45.3
		c0-2-1.6-4.1-4.9-4.1h-2.9v8h2.9C73,49.3,74.5,47.2,74.5,45.3z"/>
	<path class="st1" d="M103.1,56.3v5.5H84.6V35.7h18.3v5.5H90.9v4.7h10.7v5.5H90.9v4.9H103.1z"/>
	<path class="st1" d="M122.2,61.8l-4.7-7h0h-3.2v7H108V35.7h9.7c6.6,0,10.9,4,10.9,9.7c0,3.6-1.8,6.5-4.9,8l5.8,8.3H122.2z
		 M114.2,49.4h3c2.9,0,4.9-1.6,4.9-4c0-2.5-1.9-4.3-4.9-4.3h-3V49.4z"/>
	<path class="st1" d="M132.8,35.7h6.2v26.1h-6.2V35.7z"/>
	<path class="st1" d="M163.3,56.3v5.5h-18.5V35.7h18.3v5.5H151v4.7h10.7v5.5H151v4.9H163.3z"/>
	<path class="st1" d="M192.3,35.7v26.4h-3.4l-14.6-15.7v15.4h-6.1V35.5h3.4l14.6,15.6V35.7H192.3z"/>
	<path class="st1" d="M196.7,48.7c0-7.5,5.5-13.3,14-13.3c4.5,0,7.4,1.6,8.7,2.6l-2.7,4.9c-0.6-0.4-2.6-1.7-5.7-1.7
		c-4.7,0-7.8,2.9-7.8,7.5c0,4.6,3.1,7.5,7.8,7.5c3.2,0,5.2-1.3,5.7-1.7l2.7,4.9c-1.3,1-4.1,2.6-8.7,2.6
		C202.2,62.1,196.7,56.2,196.7,48.7z"/>
	<path class="st1" d="M241.5,56.3v5.5H223V35.7h18.3v5.5h-12.1v4.7h10.7v5.5h-10.7v4.9H241.5z"/>
</g>
<rect x="199.7" y="19.7" class="st1" width="42.1" height="2"/>
<rect x="10.5" y="19.7" class="st1" width="42.8" height="2"/>
<rect x="199.7" y="78.9" class="st1" width="42.1" height="2"/>
<rect x="10.5" y="78.9" class="st1" width="42.8" height="2"/>
</svg>
